# Blender v2.93.5 OBJ File: 'basicCharacter.blend'
# www.blender.org
mtllib basicCharacter.mtl
o basicCharacter
v 0.243933 0.178684 0.125891
v -0.259632 0.178684 0.125891
v -0.259632 -0.576661 0.125891
v 0.243933 -0.576661 0.125891
v -0.260177 -0.576661 -0.125891
v 0.243388 -0.576661 -0.125891
v -0.260177 0.178684 -0.125891
v 0.243388 0.178684 -0.125891
v 0.243660 -0.576661 0.251782
v -0.259904 -0.576661 0.251782
v -0.259904 -1.080224 0.251782
v 0.243660 -1.080224 0.251782
v -0.259904 -1.080224 -0.251781
v 0.243660 -1.080224 -0.251781
v -0.259904 -0.576661 -0.251781
v 0.243660 -0.576661 -0.251781
v -0.259904 -0.198989 0.125891
v -0.511685 -0.198989 0.125891
v -0.511685 -0.576661 0.125891
v -0.259904 -0.576661 0.125891
v -0.259904 0.178684 0.125891
v -0.511685 0.178684 0.125891
v -0.511685 -0.576661 -0.125891
v -0.259904 -0.576661 -0.125891
v -0.511685 -0.198989 -0.125891
v -0.259904 -0.198989 -0.125891
v -0.511685 0.178684 -0.125891
v -0.259904 0.178684 -0.125891
v 0.495441 -0.198989 0.125891
v 0.243660 -0.198989 0.125891
v 0.243660 -0.576661 0.125891
v 0.495441 -0.576661 0.125891
v 0.495441 0.178684 0.125891
v 0.243660 0.178684 0.125891
v 0.243660 -0.576661 -0.125891
v 0.495441 -0.576661 -0.125891
v 0.243660 -0.198989 -0.125891
v 0.495441 -0.198989 -0.125891
v 0.243660 0.178684 -0.125891
v 0.495441 0.178684 -0.125891
v -0.008122 0.556356 0.125891
v -0.259904 0.556356 0.125891
v -0.008122 0.178684 0.125891
v -0.008122 0.934029 0.125891
v -0.259904 0.934029 0.125891
v -0.008122 0.178684 -0.125891
v -0.259904 0.556356 -0.125891
v -0.008122 0.556356 -0.125891
v -0.259904 0.934029 -0.125891
v -0.008122 0.934029 -0.125891
v 0.243660 0.556356 0.125891
v -0.008122 0.556356 0.125891
v -0.008122 0.178684 0.125891
v 0.243660 0.178684 0.125891
v 0.243660 0.934029 0.125891
v -0.008122 0.934029 0.125891
v -0.008122 0.178684 -0.125891
v 0.243660 0.178684 -0.125891
v -0.008122 0.556356 -0.125891
v 0.243660 0.556356 -0.125891
v -0.008122 0.934029 -0.125891
v 0.243660 0.934029 -0.125891
vt 0.465780 0.391188
vt 0.607623 0.391188
vt 0.607623 0.603950
vt 0.465781 0.603950
vt 0.607776 0.674871
vt 0.465934 0.674871
vt 0.820385 0.603950
vt 0.678543 0.603950
vt 0.678543 0.391188
vt 0.820385 0.391188
vt 0.465934 0.320267
vt 0.607776 0.320268
vt 0.394860 0.391188
vt 0.394860 0.603950
vt 0.214239 0.703683
vt 0.355532 0.703684
vt 0.355533 0.844979
vt 0.214239 0.844978
vt 0.355532 0.986273
vt 0.214239 0.986273
vt 0.638122 0.844978
vt 0.496827 0.844978
vt 0.496827 0.703683
vt 0.638122 0.703684
vt 0.214239 0.562390
vt 0.355533 0.562389
vt 0.072944 0.703683
vt 0.072944 0.844979
vt 0.833430 0.804498
vt 0.902824 0.804498
vt 0.902825 0.908590
vt 0.833430 0.908590
vt 0.833430 0.700405
vt 0.902825 0.700405
vt 0.902825 0.977986
vt 0.833429 0.977986
vt 0.764034 0.908590
vt 0.694639 0.908590
vt 0.694639 0.804498
vt 0.764034 0.804498
vt 0.694639 0.700405
vt 0.764034 0.700405
vt 0.972220 0.804498
vt 0.972220 0.908590
vt 0.972220 0.700405
vt 0.833429 0.631010
vt 0.902825 0.631010
vt 0.110906 0.425123
vt 0.180302 0.425123
vt 0.180302 0.529216
vt 0.110906 0.529216
vt 0.110906 0.321030
vt 0.180302 0.321030
vt 0.180302 0.598611
vt 0.110906 0.598611
vt 0.319092 0.529216
vt 0.249697 0.529216
vt 0.249697 0.425123
vt 0.319092 0.425123
vt 0.249697 0.321030
vt 0.319092 0.321030
vt 0.041511 0.425123
vt 0.041511 0.529216
vt 0.041511 0.321030
vt 0.180302 0.251635
vt 0.110906 0.251635
vt 0.839335 0.203811
vt 0.908730 0.203811
vt 0.908730 0.307904
vt 0.839335 0.307904
vt 0.839335 0.099718
vt 0.908731 0.099718
vt 0.908730 0.377299
vt 0.839335 0.377299
vt 0.769940 0.307904
vt 0.700545 0.307904
vt 0.700545 0.203811
vt 0.769940 0.203811
vt 0.700545 0.099718
vt 0.769940 0.099718
vt 0.978126 0.203811
vt 0.978126 0.307904
vt 0.978126 0.099718
vt 0.839335 0.030323
vt 0.908730 0.030323
vt 0.348146 0.184777
vt 0.417542 0.184777
vt 0.417542 0.288870
vt 0.348146 0.288870
vt 0.348146 0.080684
vt 0.417542 0.080684
vt 0.417542 0.358265
vt 0.348146 0.358265
vt 0.556332 0.288870
vt 0.486937 0.288870
vt 0.486937 0.184777
vt 0.556332 0.184777
vt 0.486937 0.080684
vt 0.556332 0.080684
vt 0.278751 0.184777
vt 0.278751 0.288870
vt 0.278751 0.080684
vt 0.348146 0.011289
vt 0.417542 0.011289
vn 0.0000 0.0000 1.0000
vn 0.0000 -1.0000 0.0000
vn 0.0000 -0.0000 -1.0000
vn 0.0000 1.0000 -0.0000
vn -1.0000 0.0000 0.0022
vn 1.0000 0.0000 -0.0022
vn -1.0000 -0.0000 0.0000
vn 1.0000 0.0000 0.0000
usemtl lambert1
s 1
f 1/1/1 2/2/1 3/3/1
f 1/1/1 3/3/1 4/4/1
f 4/4/2 3/3/2 5/5/2
f 4/4/2 5/5/2 6/6/2
f 6/7/3 5/8/3 7/9/3
f 6/7/3 7/9/3 8/10/3
f 8/11/4 7/12/4 2/2/4
f 8/11/4 2/2/4 1/1/4
f 2/2/5 7/9/5 5/8/5
f 2/2/5 5/8/5 3/3/5
f 8/13/6 1/1/6 4/4/6
f 8/13/6 4/4/6 6/14/6
f 9/15/1 10/16/1 11/17/1
f 9/15/1 11/17/1 12/18/1
f 12/18/2 11/17/2 13/19/2
f 12/18/2 13/19/2 14/20/2
f 14/21/3 13/22/3 15/23/3
f 14/21/3 15/23/3 16/24/3
f 16/25/4 15/26/4 10/16/4
f 16/25/4 10/16/4 9/15/4
f 10/16/7 15/23/7 13/22/7
f 10/16/7 13/22/7 11/17/7
f 16/27/8 9/15/8 12/18/8
f 16/27/8 12/18/8 14/28/8
f 17/29/1 18/30/1 19/31/1
f 17/29/1 19/31/1 20/32/1
f 21/33/1 18/30/1 17/29/1
f 21/33/1 22/34/1 18/30/1
f 20/32/2 19/31/2 23/35/2
f 20/32/2 23/35/2 24/36/2
f 24/37/3 23/38/3 25/39/3
f 24/37/3 25/39/3 26/40/3
f 26/40/3 25/39/3 27/41/3
f 26/40/3 27/41/3 28/42/3
f 18/30/7 25/43/7 23/44/7
f 18/30/7 23/44/7 19/31/7
f 22/34/7 25/43/7 18/30/7
f 22/34/7 27/45/7 25/43/7
f 26/40/8 17/29/8 20/32/8
f 26/40/8 20/32/8 24/37/8
f 28/42/8 17/29/8 26/40/8
f 28/42/8 21/33/8 17/29/8
f 22/34/4 21/33/4 28/46/4
f 22/34/4 28/46/4 27/47/4
f 29/48/1 30/49/1 31/50/1
f 29/48/1 31/50/1 32/51/1
f 33/52/1 30/49/1 29/48/1
f 33/52/1 34/53/1 30/49/1
f 32/51/2 31/50/2 35/54/2
f 32/51/2 35/54/2 36/55/2
f 36/56/3 35/57/3 37/58/3
f 36/56/3 37/58/3 38/59/3
f 38/59/3 37/58/3 39/60/3
f 38/59/3 39/60/3 40/61/3
f 30/49/7 37/58/7 35/57/7
f 30/49/7 35/57/7 31/50/7
f 34/53/7 37/58/7 30/49/7
f 34/53/7 39/60/7 37/58/7
f 38/62/8 29/48/8 32/51/8
f 38/62/8 32/51/8 36/63/8
f 40/64/8 29/48/8 38/62/8
f 40/64/8 33/52/8 29/48/8
f 39/65/4 34/53/4 33/52/4
f 39/65/4 33/52/4 40/66/4
f 41/67/1 42/68/1 21/69/1
f 41/67/1 21/69/1 43/70/1
f 44/71/1 42/68/1 41/67/1
f 44/71/1 45/72/1 42/68/1
f 43/70/2 21/69/2 28/73/2
f 43/70/2 28/73/2 46/74/2
f 46/75/3 28/76/3 47/77/3
f 46/75/3 47/77/3 48/78/3
f 48/78/3 47/77/3 49/79/3
f 48/78/3 49/79/3 50/80/3
f 42/68/7 47/81/7 28/82/7
f 42/68/7 28/82/7 21/69/7
f 45/72/7 47/81/7 42/68/7
f 45/72/7 49/83/7 47/81/7
f 48/78/8 41/67/8 43/70/8
f 48/78/8 43/70/8 46/75/8
f 50/80/8 41/67/8 48/78/8
f 50/80/8 44/71/8 41/67/8
f 45/72/4 44/71/4 50/84/4
f 45/72/4 50/84/4 49/85/4
f 51/86/1 52/87/1 53/88/1
f 51/86/1 53/88/1 54/89/1
f 55/90/1 52/87/1 51/86/1
f 55/90/1 56/91/1 52/87/1
f 54/89/2 53/88/2 57/92/2
f 54/89/2 57/92/2 58/93/2
f 58/94/3 57/95/3 59/96/3
f 58/94/3 59/96/3 60/97/3
f 60/97/3 59/96/3 61/98/3
f 60/97/3 61/98/3 62/99/3
f 52/87/7 59/96/7 57/95/7
f 52/87/7 57/95/7 53/88/7
f 56/91/7 59/96/7 52/87/7
f 56/91/7 61/98/7 59/96/7
f 60/100/8 51/86/8 54/89/8
f 60/100/8 54/89/8 58/101/8
f 62/102/8 51/86/8 60/100/8
f 62/102/8 55/90/8 51/86/8
f 56/91/4 55/90/4 62/103/4
f 56/91/4 62/103/4 61/104/4
